Coordinates
version=1
nRows=24
nColumns=22
inDegrees=yes

Units are S.I. units (second, meters, Newtons, ...)
If the header above contains a line with 'inDegrees', this indicates whether rotational values are in degrees (yes) or radians (no).

endheader
time	pelvis_tilt	pelvis_list	pelvis_rotation	pelvis_tx	pelvis_ty	pelvis_tz	hip_flexion_r	hip_adduction_r	hip_rotation_r	knee_angle_r	ankle_angle_r	subtalar_angle_r	hip_flexion_l	hip_adduction_l	hip_rotation_l	knee_angle_l	ankle_angle_l	subtalar_angle_l	lumbar_extension	lumbar_bending	lumbar_rotation
      0.01000000	    -13.21429822	      0.01767669	    -15.49000425	     -0.97752453	      0.97393396	     -0.28059047	     18.10814341	      3.74058135	     -3.01570071	    -18.37835643	     17.93506436	     -9.91496368	     19.12880957	     -1.75372593	     -3.06807073	    -20.76495408	     21.85586896	     -1.76180174	      3.82368436	      3.50516675	      3.65649922
      0.02000000	    -13.20935433	      0.03813333	    -15.49917515	     -0.97715968	      0.97386051	     -0.28123695	     18.18220194	      3.66974335	     -3.01985885	    -18.53806096	     17.97249141	     -9.89523622	     19.12396300	     -1.68605702	     -3.06960423	    -20.78310265	     21.88912289	     -1.77012292	      3.76054894	      3.47513010	      3.67762403
      0.03000000	    -13.21133706	      0.07708477	    -15.51069828	     -0.97672761	      0.97375637	     -0.28200864	     18.28368847	      3.57479551	     -3.00503931	    -18.73073949	     18.03729885	     -9.85743172	     19.12305843	     -1.59076709	     -3.06269456	    -20.79021545	     21.91559892	     -1.79711190	      3.70121077	      3.42658459	      3.69946687
      0.04000000	    -13.21633121	      0.12042855	    -15.52012945	     -0.97625143	      0.97362808	     -0.28287762	     18.40439576	      3.46894742	     -2.98710500	    -18.95470900	     18.10724820	     -9.80599552	     19.12586838	     -1.48456660	     -3.05156448	    -20.79811306	     21.94453096	     -1.83856519	      3.63605168	      3.36997457	      3.72220317
      0.05000000	    -13.24234662	      0.18904296	    -15.53508675	     -0.97571481	      0.97345001	     -0.28382150	     18.56771765	      3.33877941	     -2.95233739	    -19.21039682	     18.21459445	     -9.70408203	     19.13882073	     -1.35290717	     -3.04767766	    -20.77521815	     21.94492366	     -1.91854243	      3.60413471	      3.29708425	      3.71928074
      0.06000000	    -13.28122872	      0.24804876	    -15.54550620	     -0.97520998	      0.97323564	     -0.28483550	     18.75510550	      3.21733416	     -2.92008570	    -19.48483145	     18.29994810	     -9.54693882	     19.18481852	     -1.22786547	     -3.01216032	    -20.79091587	     21.95701607	     -2.03618511	      3.56648534	      3.23638008	      3.73634569
      0.07000000	    -13.26508234	      0.27581826	    -15.54485321	     -0.97462862	      0.97308654	     -0.28588598	     18.87532249	      3.10588855	     -2.91666781	    -19.76230765	     18.36640055	     -9.52509672	     19.16887238	     -1.11724716	     -2.98445929	    -20.81961543	     22.03652794	     -2.06496475	      3.45695212	      3.19130427	      3.74844853
      0.08000000	    -13.27902115	      0.36944858	    -15.55011264	     -0.97404285	      0.97285551	     -0.28696648	     19.07841977	      2.93618316	     -2.87356573	    -20.10608687	     18.50924840	     -9.41768395	     19.17504954	     -0.94348186	     -2.95685232	    -20.79531576	     22.02344886	     -2.16071847	      3.40441941	      3.08095352	      3.73734855
      0.09000000	    -13.27989684	      0.44016151	    -15.55200069	     -0.97345745	      0.97261500	     -0.28807471	     19.27859474	      2.78143142	     -2.85556461	    -20.47881439	     18.63090415	     -9.32541204	     19.17823719	     -0.78904345	     -2.92637813	    -20.80284459	     22.07036912	     -2.24543735	      3.32097560	      2.99304332	      3.72990120
      0.10000000	    -13.27910924	      0.52934331	    -15.55786632	     -0.97288476	      0.97233910	     -0.28920411	     19.51303705	      2.60760202	     -2.82300362	    -20.90616578	     18.76656102	     -9.21363620	     19.18652934	     -0.61332547	     -2.88669369	    -20.81474225	     22.09738628	     -2.34180697	      3.23354320	      2.88521213	      3.72244777
      0.11000000	    -13.25033745	      0.60967614	    -15.56152759	     -0.97226697	      0.97206826	     -0.29034068	     19.74472853	      2.42905275	     -2.82374873	    -21.38971156	     18.90369458	     -9.14954158	     19.15909307	     -0.44207717	     -2.87676510	    -20.82007470	     22.18630440	     -2.40597113	      3.11226853	      2.77842385	      3.69839173
      0.12000000	    -13.21753864	      0.72516718	    -15.56851063	     -0.97167293	      0.97175330	     -0.29149261	     20.02876932	      2.21532219	     -2.79697495	    -21.95735925	     19.06632224	     -9.05586162	     19.13717226	     -0.23140688	     -2.85818719	    -20.82429291	     22.23467673	     -2.48536230	      2.98988586	      2.62649014	      3.68195367
      0.13000000	    -13.20518224	      0.87992366	    -15.58525900	     -0.97113806	      0.97135726	     -0.29267193	     20.39534925	      1.97169644	     -2.72196827	    -22.60958323	     19.25173797	     -8.86756280	     19.15458446	      0.01536796	     -2.82384132	    -20.83905055	     22.22869382	     -2.60971847	      2.88935370	      2.43935799	      3.68178499
      0.14000000	    -13.15968359	      1.03212006	    -15.60295300	     -0.97054893	      0.97096329	     -0.29384726	     20.77259257	      1.71463725	     -2.68444599	    -23.34973941	     19.42870675	     -8.70767156	     19.13190137	      0.26349087	     -2.82711847	    -20.84811772	     22.28991812	     -2.70425624	      2.75178205	      2.24497039	      3.66506947
      0.15000000	    -13.09353879	      1.20176228	    -15.62873905	     -0.96996443	      0.97056337	     -0.29503402	     21.18244122	      1.43631401	     -2.62566662	    -24.17550028	     19.60514578	     -8.55665370	     19.08692496	      0.53402365	     -2.84298238	    -20.84479685	     22.34586654	     -2.78015487	      2.58594436	      2.02764734	      3.64319720
      0.16000000	    -13.01861617	      1.39426898	    -15.66436179	     -0.96936612	      0.97013749	     -0.29621596	     21.64230917	      1.13327519	     -2.55292892	    -25.09722162	     19.77053368	     -8.37542425	     19.03391895	      0.82652377	     -2.87995263	    -20.83342325	     22.39955013	     -2.85398324	      2.41434482	      1.78281592	      3.62414977
      0.17000000	    -12.95588451	      1.60399371	    -15.71223095	     -0.96876623	      0.96965729	     -0.29738372	     22.17612208	      0.81763660	     -2.47278105	    -26.11905493	     19.89637913	     -8.09326882	     19.00016292	      1.12575457	     -2.95306229	    -20.82702847	     22.46097541	     -2.94396118	      2.26126663	      1.52609804	      3.60764814
      0.18000000	    -12.82636250	      1.82416294	    -15.75979870	     -0.96810610	      0.96926285	     -0.29855303	     22.67727892	      0.47485661	     -2.36743001	    -27.20494842	     20.03554884	     -7.97495184	     18.88109829	      1.45983679	     -3.00838504	    -20.78897527	     22.52769136	     -2.96909594	      2.03012266	      1.23871715	      3.57221749
      0.19000000	    -12.70717903	      2.06065499	    -15.82448665	     -0.96743921	      0.96883972	     -0.29967274	     23.24449388	      0.12720766	     -2.23741677	    -28.38075740	     20.11672242	     -7.80481675	     18.77091287	      1.79774486	     -3.10553083	    -20.73994842	     22.58599539	     -3.00033022	      1.81505235	      0.93499640	      3.54689239
      0.20000000	    -12.58398018	      2.30407896	    -15.89644509	     -0.96674046	      0.96842031	     -0.30077119	     23.84920937	     -0.22386425	     -2.08742064	    -29.62747036	     20.15412213	     -7.63350571	     18.65109960	      2.14133439	     -3.21842827	    -20.67894178	     22.64617416	     -3.02432002	      1.59739203	      0.62723126	      3.51671147
      0.21000000	    -12.50471408	      2.54967512	    -15.97743627	     -0.96603796	      0.96793411	     -0.30182181	     24.53996851	     -0.55489260	     -1.91418688	    -30.94461771	     20.13239677	     -7.34902829	     18.58369847	      2.46613706	     -3.36283910	    -20.63136865	     22.71661559	     -3.06399557	      1.43249415	      0.33257103	      3.48175055
      0.22000000	    -12.34436733	      2.78817178	    -16.05838296	     -0.96521814	      0.96760351	     -0.30282371	     25.16012628	     -0.89682975	     -1.73503227	    -32.29543445	     20.07543299	     -7.29809958	     18.39504584	      2.81247767	     -3.48255996	    -20.52631045	     22.76711648	     -3.06124427	      1.17620619	      0.01825619	      3.43575304
      0.23000000	    -12.20841391	      3.02649505	    -16.15047638	     -0.96436254	      0.96725031	     -0.30376259	     25.83254918	     -1.21653156	     -1.52471262	    -33.69027161	     19.96175693	     -7.24015244	     18.22674556	      3.14526689	     -3.62466839	    -20.41702729	     22.81718323	     -3.06793179	      0.95198077	     -0.28562299	      3.39384547
      0.24000000	    -12.08458451	      3.25459024	    -16.24247273	     -0.96344434	      0.96690540	     -0.30464765	     26.53081424	     -1.51213550	     -1.30391345	    -35.11191430	     19.80411268	     -7.20685131	     18.06067162	      3.46291281	     -3.76670929	    -20.30048765	     22.86304354	     -3.08085413	      0.74402048	     -0.57267993	      3.34148128
